<svg preserveAspectRatio="none" overflow="visible" style="display: block;" width="49.8116" height="47.9847" viewBox="0 0 49.8116 47.9847" fill="none" xmlns="http://www.w3.org/2000/svg">
<path id="Vector" d="M39.7555 30.6003C42.0617 27.356 43.2907 23.4705 43.2661 19.4908C43.2436 15.5132 41.9675 11.642 39.6244 8.4263L42.8114 6.85739C43.0469 6.74064 43.1964 6.49896 43.1923 6.23679C43.1903 5.97258 43.0346 5.73499 42.797 5.62642L39.3663 4.0391L37.566 0.381042C37.4492 0.145501 37.2076 -0.00401804 36.9433 8.22426e-05C36.6812 0.00417833 36.4436 0.157791 36.333 0.397427L34.7661 3.78713C30.5551 1.00162 25.4057 0.0103119 20.4618 1.03234C15.5175 2.05642 11.1858 5.00783 8.42255 9.23343C5.66163 13.4609 4.69895 18.6143 5.74966 23.554L2.29646 25.254C2.06092 25.3687 1.91345 25.6104 1.9155 25.8746C1.91959 26.1368 2.07321 26.3744 2.31284 26.485L5.74355 28.0723L7.5439 31.7263C7.6586 31.9598 7.89619 32.1072 8.15633 32.1072H8.16452C8.42668 32.1031 8.66427 31.9495 8.77489 31.7119L9.11899 30.9664C10.694 33.0596 12.6828 34.8087 14.9606 36.1053H12.5417C11.0035 36.1053 9.75411 37.3526 9.75411 38.8908V40.3102H8.06639C7.12217 40.3122 6.35617 41.0762 6.35413 42.0224V46.2724C6.35617 47.2166 7.12217 47.9826 8.06639 47.9847H40.5362C41.4805 47.9826 42.2465 47.2166 42.2485 46.2724V42.0224C42.2464 41.0762 41.4805 40.3102 40.5362 40.3102H38.8485V38.8908C38.8465 37.3526 37.6012 36.1053 36.0609 36.1053H33.6544C36.0671 34.7371 38.1501 32.8589 39.756 30.5998L39.7555 30.6003ZM35.8824 4.62541L36.972 2.27L38.2481 4.85481C38.3177 4.99408 38.4324 5.10673 38.5737 5.17228L40.925 6.25985L38.3382 7.53382H38.3402C38.201 7.60346 38.0883 7.71815 38.0228 7.85948L36.9331 10.2149L35.6551 7.63008C35.5855 7.48876 35.4708 7.37816 35.3294 7.31261L32.974 6.223L35.5629 4.94698C35.7042 4.87939 35.8169 4.76265 35.8824 4.62132L35.8824 4.62541ZM8.13577 29.8469L6.85975 27.258V27.2559C6.79012 27.1167 6.67542 27.0061 6.5341 26.9405L4.18073 25.8509L6.76758 24.5708C6.9089 24.5012 7.02156 24.3865 7.0871 24.2451L8.17672 21.8918L9.45273 24.4807L9.45069 24.4786C9.52032 24.6179 9.63502 24.7305 9.77634 24.7961L12.1318 25.8857L9.54286 27.1617C9.40358 27.2293 9.29093 27.3461 9.22539 27.4874L8.13577 29.8469ZM40.884 42.0235V46.2734C40.8799 46.4639 40.7263 46.6175 40.5359 46.6196H8.066C7.87552 46.6175 7.72191 46.4639 7.71986 46.2734V44.8295H16.8422C17.2191 44.8295 17.5243 44.5243 17.5243 44.1474C17.5243 43.7706 17.2191 43.4654 16.8422 43.4654H7.71986V42.0235C7.72191 41.833 7.87552 41.6794 8.066 41.6753H40.5359C40.7263 41.6794 40.8799 41.833 40.884 42.0235ZM37.4841 38.8918V40.3111H11.1201V38.8918C11.1201 38.1073 11.755 37.4704 12.5415 37.4683H36.0604C36.8469 37.4704 37.4819 38.1074 37.4819 38.8918H37.4841ZM30.426 36.1063H18.1781C14.772 34.8323 11.8389 32.5404 9.7783 29.5437L10.3641 28.2779L14.0181 26.4776H14.016C14.2536 26.3629 14.4011 26.1212 14.399 25.857C14.3949 25.5948 14.2413 25.3572 14.0017 25.2466L10.5689 23.6593L8.76856 20.0053C8.65182 19.7677 8.41014 19.6202 8.14796 19.6223C7.88375 19.6264 7.64616 19.78 7.53554 20.0196L6.81254 21.5845C6.2493 16.6033 7.83457 11.6179 11.1751 7.87997C14.5137 4.14001 19.2902 2.00167 24.3018 2.00167C27.4949 1.99553 30.6263 2.86394 33.3607 4.51275L31.0934 5.63105C30.8558 5.74575 30.7083 5.98743 30.7104 6.25165C30.7145 6.51382 30.8681 6.75141 31.1077 6.86203L34.5405 8.44934L36.3408 12.1012H36.3429C36.4576 12.3347 36.6952 12.4822 36.9533 12.4822H36.9615C37.2257 12.4781 37.4633 12.3245 37.5739 12.0848L38.7475 9.54507C40.8141 12.4903 41.916 16.0028 41.9017 19.5997C41.8955 23.1922 40.7936 26.6965 38.7414 29.6459C36.6911 32.5953 33.7889 34.8483 30.426 36.1057L30.426 36.1063ZM24.3018 7.50127C22.1184 7.49923 19.976 8.0891 18.1 9.2074C16.2259 10.3257 14.6877 11.9294 13.6513 13.8506C13.4711 14.1824 13.0574 14.3074 12.7256 14.1271C12.3938 13.9489 12.2709 13.5332 12.4491 13.2034C13.6042 11.0651 15.3144 9.2791 17.4016 8.03585C19.4866 6.79261 21.8707 6.13515 24.2997 6.13719C24.6765 6.13719 24.9817 6.44237 24.9817 6.8172C24.9817 7.19406 24.6766 7.49925 24.2997 7.49925L24.3018 7.50127ZM36.2262 26.867C35.071 29.0032 33.3608 30.7893 31.2757 32.0325C29.1886 33.2758 26.8046 33.9332 24.3755 33.9312C24.0007 33.9312 23.6955 33.626 23.6955 33.2512C23.6955 32.8743 24.0007 32.5691 24.3755 32.5691C26.5589 32.5691 28.7013 31.9792 30.5752 30.8609C32.4513 29.7426 33.9875 28.1369 35.0259 26.2177C35.1119 26.0579 35.2574 25.9392 35.4315 25.8879C35.6056 25.8367 35.7919 25.8552 35.9517 25.9412C36.2815 26.1214 36.4064 26.5352 36.2262 26.867ZM49.4142 8.66267L47.2718 7.67341L46.1433 5.38763H46.1454C46.0286 5.15209 45.7869 5.00258 45.5248 5.00668C45.2605 5.00872 45.023 5.16438 44.9123 5.40402L43.9231 7.54639L41.6373 8.67083C41.4018 8.78552 41.2522 9.02721 41.2563 9.29143C41.2584 9.55359 41.412 9.79118 41.6516 9.9018L43.794 10.8952L44.9184 13.1809H44.9205C45.0352 13.4144 45.2728 13.5619 45.5329 13.5619H45.5411C45.8033 13.5578 46.0409 13.4042 46.1515 13.1666L47.1448 11.0242L49.4306 9.89569V9.89365C49.6661 9.77895 49.8157 9.53726 49.8116 9.27304C49.8095 9.01088 49.6538 8.7733 49.4142 8.66267ZM46.3235 9.90387V9.90592C46.1842 9.97351 46.0716 10.0882 46.0061 10.2316L45.5124 11.2946L44.9123 10.0739H44.9103C44.8427 9.93459 44.728 9.82193 44.5846 9.75639L43.5196 9.26278L44.7403 8.66268H44.7424C44.8816 8.59304 44.9943 8.47834 45.0598 8.33702L45.5514 7.272L46.1535 8.4927V8.49474C46.2232 8.63402 46.3379 8.74667 46.4792 8.81221L47.5442 9.30377L46.3235 9.90387ZM8.55529 33.9923C8.55119 33.728 8.39758 33.4905 8.15999 33.3798L6.01557 32.3865L4.88705 30.1028L4.8891 30.1048C4.77235 29.8672 4.53067 29.7197 4.2685 29.7218C4.00428 29.7259 3.7667 29.8816 3.65608 30.1191L2.66682 32.2615L0.381041 33.3859V33.388C0.1455 33.5027 -0.004013 33.7444 8.20378e-05 34.0086C0.00213008 34.2708 0.157791 34.5083 0.397427 34.619L2.5398 35.6082L3.66423 37.894C3.77893 38.1275 4.01652 38.275 4.27665 38.275H4.28484C4.54701 38.2729 4.7846 38.1193 4.89522 37.8797L5.88857 35.7373L8.17435 34.6108V34.6129C8.40989 34.4961 8.55939 34.2544 8.55529 33.9923ZM5.06931 34.621H5.06727C4.92799 34.6886 4.81534 34.8033 4.7498 34.9467L4.25619 36.0117L3.65609 34.789C3.58645 34.6497 3.47175 34.537 3.33043 34.4715L2.26745 33.9799L3.4861 33.3778C3.62743 33.3102 3.74007 33.1955 3.80562 33.0521L4.29923 31.9892L4.90137 33.2078C4.97101 33.3471 5.08571 33.4597 5.22703 33.5253L6.29206 34.0189L5.06931 34.621Z" fill="black"/>
</svg>
