<svg width="40" height="45" viewBox="0 0 40 45" fill="none" xmlns="http://www.w3.org/2000/svg">
  <path d="M0.0465109 11.1158C1.24628e-06 11.1623 1.95168e-06 11.2088 1.95168e-06 11.2088L1.93948e-06 11.3483C1.93948e-06 11.3483 1.93542e-06 11.3949 1.93135e-06 11.4414L1.92729e-06 11.4879C1.92322e-06 11.5344 1.91915e-06 11.5809 1.91915e-06 11.5809L2.84634e-08 33.2079C2.84634e-08 33.2079 2.84637e-08 33.2079 2.43977e-08 33.2544L1.62662e-08 33.3474C1.62662e-08 33.3474 1.62648e-08 33.3474 1.21988e-08 33.3939C1.21988e-08 33.3939 1.21991e-08 33.3939 8.13308e-09 33.4404L0 33.5334C-4.06444e-09 33.5799 0.0465089 33.5799 0.0465089 33.6265C0.0465089 33.6265 0.0465089 33.6265 0.0465089 33.673C0.0465089 33.7195 0.0930178 33.7195 0.0930178 33.7195C0.0930178 33.7195 0.0930178 33.7195 0.0930178 33.766L0.13953 33.8125C0.13953 33.8125 0.186038 33.859 0.232548 33.859C0.232548 33.859 0.232547 33.859 0.279057 33.859L19.1155 44.7888C19.3945 44.9283 19.7201 44.9283 19.9526 44.7888L38.696 33.952C38.7425 33.952 38.7425 33.9055 38.789 33.9055C38.789 33.9055 38.789 33.9055 38.8355 33.9055L38.882 33.859C38.882 33.859 38.882 33.859 38.9285 33.8125L38.9751 33.766C38.9751 33.766 38.9751 33.7195 39.0216 33.7195C39.0216 33.7195 39.0216 33.7195 39.0681 33.673V33.6265C39.0681 33.6265 39.0681 33.5799 39.1146 33.5799V33.3009C39.1146 33.3009 39.1146 33.3009 39.1146 33.2544L39.1146 11.6274C39.1146 11.5809 39.1146 11.5344 39.1146 11.4879V11.4414C39.1146 11.3949 39.0681 11.3483 39.0681 11.3018C39.0681 11.2553 39.0216 11.2088 38.9751 11.1623C38.9751 11.1623 38.9751 11.1623 38.9751 11.1158C38.9751 11.0228 38.9286 10.9763 38.882 10.9763C38.8355 10.9298 38.8355 10.9298 38.789 10.8833C38.789 10.8833 38.789 10.8833 38.7425 10.8833C38.7425 10.8833 38.7425 10.8833 38.696 10.8833L19.9526 0.046509C19.9526 0.046509 19.9061 0.0465097 19.9061 6.09895e-08L19.7201 4.47249e-08C19.7201 4.47249e-08 19.7201 4.47252e-08 19.6736 4.06592e-08C19.6271 3.65932e-08 19.6271 3.65936e-08 19.5806 3.25276e-08C19.534 2.84616e-08 19.534 2.84621e-08 19.4875 2.43961e-08C19.4875 2.43961e-08 19.4875 2.43948e-08 19.441 2.03288e-08C19.3945 1.62628e-08 19.3945 1.62633e-08 19.348 1.21973e-08L19.2085 0C19.2085 0 19.162 -7.14447e-07 19.162 0.0465089L0.418589 10.8832C0.418589 10.8832 0.41859 10.8832 0.37208 10.8832C0.37208 10.8832 0.372077 10.8832 0.325568 10.8832C0.325568 10.8832 0.279059 10.8832 0.279059 10.9298L0.23255 10.9763C0.23255 10.9763 0.186041 10.9763 0.186041 11.0228L0.139532 11.0693C0.139532 11.0693 0.139529 11.1158 0.0930198 11.1158C0.0930198 11.0693 0.0930205 11.1158 0.0465109 11.1158ZM37.2542 28.3709L32.0451 15.4412C31.9986 15.3017 32.0451 15.1156 32.2312 15.0226L37.0217 13.0227C37.2077 12.9297 37.4402 13.0692 37.4402 13.3018L37.4402 28.3244C37.4402 28.4174 37.3007 28.4639 37.2542 28.3709ZM10.2786 15.5342L28.7895 15.5342C29.022 15.5342 29.1615 15.8133 29.0685 15.9993L19.8131 32.0451C19.6736 32.2312 19.3945 32.2312 19.3015 32.0451L10.0461 15.9993C9.90655 15.7668 10.0461 15.5342 10.2786 15.5342ZM30.8824 17.2086L36.8821 32.0451C36.9751 32.2312 36.8356 32.4637 36.6031 32.4637L21.627 33.2079C21.3944 33.2079 21.2084 32.9753 21.3479 32.7428L30.3708 17.162C30.4638 16.9295 30.7894 16.9295 30.8824 17.2086ZM10.4647 13.3017L19.3015 2.4185C19.441 2.27897 19.6736 2.27897 19.7666 2.4185L28.6034 13.3018C28.7429 13.4878 28.6034 13.8134 28.3709 13.8134L10.6972 13.8134C10.4647 13.8134 10.3251 13.4878 10.4647 13.3017ZM8.6973 17.162L17.7202 32.7428C17.8597 32.9753 17.6737 33.2079 17.4411 33.2079L2.46501 32.4637C2.23246 32.4637 2.13944 32.2312 2.18595 32.0451L8.18569 17.2086C8.27871 16.9295 8.60428 16.9295 8.6973 17.162ZM18.6969 35.2543L18.6969 42.0447C18.6969 42.2772 18.4178 42.4168 18.2318 42.3238L4.65096 34.4636C4.55794 34.4171 4.60445 34.2776 4.69747 34.2776L18.4178 34.9752C18.5573 34.9752 18.6969 35.1148 18.6969 35.2543ZM20.6968 34.9752L34.4171 34.2776C34.5101 34.2776 34.5566 34.4171 34.4636L20.8363 42.2772C20.6503 42.4168 20.3712 42.2307 20.3712 41.9982V35.2543C20.3712 35.1148 20.5107 34.9752 20.6968 34.9752ZM30.9289 13.4413L23.4408 4.18587C23.3943 4.09285 23.4874 3.99983 23.5804 4.04634L35.8124 11.1158C36.045 11.2553 35.9984 11.5809 35.7659 11.6739L31.2545 13.5343C31.1614 13.5808 31.0219 13.5343 30.9289 13.4413ZM7.81362 13.5343L3.30218 11.6739C3.06964 11.5809 3.02313 11.2553 3.25568 11.1158L15.5342 4.04633C15.6272 3.99983 15.7203 4.09285 15.6737 4.18586L8.18569 13.4413C8.04616 13.5343 7.90664 13.5808 7.81362 13.5343ZM2.04643 13.0227L6.83691 15.0226C6.97644 15.0691 7.06946 15.2552 7.02295 15.4412L1.81388 28.3709C1.76737 28.4639 1.62784 28.4174 1.62784 28.3244L1.62784 13.3017C1.62784 13.0692 1.86039 12.9297 2.04643 13.0227Z" fill="url(#paint0_linear_133_6363)" />
  <defs>
    <linearGradient id="paint0_linear_133_6363" x1="39.1146" y1="44.8937" x2="-5.3559" y2="6.14754" gradientUnits="userSpaceOnUse">
      <stop stop-color="#9810FA" />
      <stop offset="1" stop-color="#4F39F6" />
    </linearGradient>
  </defs>
</svg>
