<svg preserveAspectRatio="none" overflow="visible" style="display: block;" width="35.7829" height="36" viewBox="0 0 35.7829 36" fill="none" xmlns="http://www.w3.org/2000/svg">
<g id="Vector">
<path d="M9.42428 0C9.42428 0 0.186297 1.07824 0.186297 8.9247L9.42428 10.3667V0Z" fill="black"/>
<path d="M6.32012 10.8345L0.595091 9.93905L0 14.4964H6.19877L6.32012 10.8345Z" fill="black"/>
<path d="M26.3587 0V10.3665L35.5966 8.92446C35.5966 1.0781 26.3587 0 26.3587 0Z" fill="black"/>
<path d="M29.4628 10.8345L29.5841 14.4964H35.7829L35.1878 9.93905L29.4628 10.8345Z" fill="black"/>
<path d="M8.99877 23.8782C8.60329 23.3558 8.25258 22.8185 7.96155 22.2589L3.61124 28.3627L4.61116 33.4516L9.74496 32.7427L10.812 31.2429L13.9162 26.8925C11.6776 25.2211 8.99877 23.8782 8.99877 23.8782Z" fill="black"/>
<path d="M24.8682 7.95047V2.36871L21.2417 0.697243V0.973332C21.2417 2.82389 19.7418 4.32372 17.8913 4.32372C16.0407 4.32372 14.5409 2.82389 14.5409 0.973332V0.697243L10.9144 2.36871V7.95047L17.8911 11.383L24.8682 7.95047Z" fill="black"/>
<path d="M9.23564 21.3896C9.52666 21.9492 9.87739 22.4865 10.2729 23.0088C10.2729 23.0088 12.9517 24.352 15.1903 26.0234C16.3544 26.8965 17.3991 27.8516 17.8915 28.7694C18.384 27.8516 19.4287 26.8965 20.5927 26.0234C22.8313 24.352 25.5102 23.0088 25.5102 23.0088C25.9057 22.4864 26.2564 21.9492 26.5474 21.3896C28.4726 17.9123 28.7412 13.8976 28.674 11.5174L24.8684 12.1069V9.60714L18.2198 12.8904C18.2123 12.8904 18.1974 12.8904 18.19 12.8978C18.0929 12.9352 17.9959 12.965 17.8915 12.965C17.787 12.965 17.69 12.9352 17.593 12.8978C17.5855 12.8904 17.5706 12.8904 17.5631 12.8904L10.9145 9.60714V12.1069L7.10891 11.5174C7.04175 13.8978 7.31048 17.9124 9.23564 21.3896ZM20.7941 16.4649H24.1072C24.5251 16.4649 24.8534 16.7933 24.8534 17.2111C24.8534 17.6215 24.5251 17.9573 24.1072 17.9573H20.7941C20.3837 17.9573 20.0479 17.6215 20.0479 17.2111C20.0479 16.7933 20.3837 16.4649 20.7941 16.4649ZM20.6822 19.8601H22.4506C22.861 19.8601 23.1968 20.1885 23.1968 20.6063C23.1968 21.0167 22.861 21.3525 22.4506 21.3525H20.6822C20.2643 21.3525 19.936 21.0167 19.936 20.6063C19.936 20.1885 20.2643 19.8601 20.6822 19.8601ZM17.1452 15.6666C17.1452 15.2561 17.481 14.9204 17.8914 14.9204C18.3018 14.9204 18.6376 15.2561 18.6376 15.6666V22.9418C18.6376 23.3596 18.3018 23.6879 17.8914 23.6879C17.481 23.6879 17.1452 23.3596 17.1452 22.9418V15.6666ZM15.1007 21.3524H13.3322C12.9218 21.3524 12.586 21.0166 12.586 20.6062C12.586 20.1884 12.9218 19.86 13.3322 19.86H15.1007C15.5186 19.86 15.8469 20.1884 15.8469 20.6062C15.8469 21.0166 15.5186 21.3524 15.1007 21.3524ZM11.6757 16.465H14.9888C15.3992 16.465 15.735 16.7934 15.735 17.2112C15.735 17.6216 15.3992 17.9574 14.9888 17.9574H11.6757C11.2578 17.9574 10.9295 17.6216 10.9295 17.2112C10.9295 16.7934 11.2578 16.465 11.6757 16.465Z" fill="black"/>
<path d="M17.8915 30.2618C17.399 29.3439 16.3543 28.3888 15.1903 27.5158L12.0861 31.8661L17.8914 36L23.6966 31.8661L20.5925 27.5158C19.4284 28.3888 18.3839 29.3439 17.8915 30.2618Z" fill="black"/>
<path d="M26.8869 23.8782C26.8869 23.8782 24.208 25.2213 21.9694 26.8928L25.0735 31.2431L26.1406 32.7429L31.2744 33.4518L32.2743 28.3629L27.924 22.2592C27.633 22.8188 27.2805 23.3559 26.8869 23.8782Z" fill="black"/>
</g>
</svg>
