<svg preserveAspectRatio="none" overflow="visible" style="display: block;" width="38.784" height="38.784" viewBox="0 0 38.784 38.784" fill="none" xmlns="http://www.w3.org/2000/svg">
<g id="Union">
<path d="M19.392 33.2435C19.9018 33.2435 20.3155 33.6571 20.3155 34.1669V37.8606C20.3155 38.3704 19.9018 38.784 19.392 38.784C18.8822 38.784 18.4686 38.3704 18.4686 37.8606V34.1669C18.4686 33.6571 18.8822 33.2435 19.392 33.2435Z" fill="black"/>
<path d="M8.95113 28.8932C9.20099 28.8885 9.4436 28.9872 9.61906 29.165C9.79698 29.3405 9.89557 29.5835 9.8908 29.8335C9.88599 30.0836 9.78018 30.3217 9.59742 30.4924L6.98584 33.104C6.62514 33.4646 6.04075 33.4647 5.68005 33.104C5.31955 32.7433 5.32001 32.1588 5.68066 31.7982L8.29223 29.1866C8.46294 29.004 8.70115 28.8981 8.95113 28.8932Z" fill="black"/>
<path d="M29.8335 28.8932C30.0835 28.8981 30.3217 29.0039 30.4924 29.1866L33.104 31.7982C33.443 32.1636 33.4333 32.7288 33.0799 33.0823C32.7289 33.4334 32.1613 33.4431 31.7982 33.104L29.1866 30.4924C29.0039 30.3217 28.8981 30.0836 28.8932 29.8335C28.8885 29.5835 28.9871 29.3405 29.1626 29.165C29.3405 28.9871 29.5811 28.8884 29.8335 28.8932Z" fill="black"/>
<path d="M19.3938 13.2719C21.3948 11.11 24.656 10.6795 27.1498 12.2499C29.8791 13.986 30.8819 17.4851 29.4896 20.402C27.4956 24.6726 23.3087 27.6662 19.8844 29.8089C19.7353 29.893 19.5669 29.9411 19.3938 29.9435C19.2208 29.9411 19.0499 29.8954 18.9008 29.8089C15.4763 27.6666 11.2898 24.6751 9.29622 20.402C7.89668 17.4852 8.90428 13.9813 11.6361 12.2499C14.13 10.6796 17.3907 11.1101 19.3938 13.2719Z" fill="black"/>
<path d="M4.61715 18.4686C5.12695 18.4686 5.54058 18.8822 5.54058 19.392C5.54058 19.9018 5.12695 20.3155 4.61715 20.3155H0.92343C0.413623 20.3155 0 19.9018 0 19.392C0 18.8822 0.413623 18.4686 0.92343 18.4686H4.61715Z" fill="black"/>
<path d="M37.8606 18.4686C38.3704 18.4686 38.784 18.8822 38.784 19.392C38.784 19.9018 38.3704 20.3155 37.8606 20.3155H34.1669C33.6571 20.3155 33.2435 19.9018 33.2435 19.392C33.2435 18.8822 33.6571 18.4686 34.1669 18.4686H37.8606Z" fill="black"/>
<path d="M31.7982 5.68005C32.1589 5.3194 32.7433 5.31936 33.104 5.68005C33.4646 6.04073 33.4646 6.62514 33.104 6.98584L30.4924 9.59742C30.3217 9.78014 30.0835 9.88595 29.8335 9.8908C29.5835 9.8956 29.3405 9.79696 29.165 9.61906C28.987 9.44353 28.8884 9.20063 28.8932 8.95053C28.8981 8.70045 29.0039 8.46236 29.1866 8.29163L31.7982 5.68005Z" fill="black"/>
<path d="M5.7041 5.7041C6.0552 5.35075 6.62278 5.34103 6.98584 5.68005L9.59742 8.29163C9.86189 8.55611 9.93879 8.95298 9.79701 9.29682C9.65513 9.64306 9.31841 9.86669 8.94332 9.86675C8.70043 9.86916 8.46477 9.77056 8.29163 9.59742L5.68005 6.98584C5.34098 6.62275 5.3506 6.0552 5.7041 5.7041Z" fill="black"/>
<path d="M19.392 0C19.9018 0 20.3155 0.413623 20.3155 0.92343V4.61715C20.3155 5.12695 19.9018 5.54058 19.392 5.54058C18.8822 5.54058 18.4686 5.12695 18.4686 4.61715V0.92343C18.4686 0.413623 18.8822 0 19.392 0Z" fill="black"/>
</g>
</svg>
