<svg preserveAspectRatio="none" overflow="visible" style="display: block;" width="35.5662" height="28.8267" viewBox="0 0 35.5662 28.8267" fill="none" xmlns="http://www.w3.org/2000/svg">
<path id="Vector" fill-rule="evenodd" clip-rule="evenodd" d="M15.7557 25.4535C15.6182 25.4535 15.4862 25.3988 15.389 25.3016C15.2917 25.2043 15.2371 25.0724 15.2371 24.9348C15.2371 24.7972 15.2917 24.6653 15.389 24.568C15.4862 24.4708 15.6182 24.4161 15.7557 24.4161H21.7021C21.9196 24.4154 22.128 24.3287 22.2818 24.1749C22.4356 24.0211 22.5223 23.8128 22.523 23.5953C22.523 23.0413 22.12 22.453 21.4785 21.999C20.7388 21.4911 19.8613 21.2219 18.964 21.2278H17.4396C15.705 21.2278 14.9796 20.7711 13.9114 20.1002C11.253 18.4269 9.98715 18.4807 6.90178 18.6558C6.45865 18.681 5.9862 18.7077 5.4446 18.731L5.38409 25.7057C5.93246 25.7808 6.47406 25.856 7.01303 25.9834C8.09022 26.2398 9.28844 26.905 10.4634 27.5575C11.0005 27.8556 11.533 28.1513 12.0239 28.3911C12.6103 28.6858 13.259 28.8351 13.9152 28.8264H19.5037C19.7784 28.8269 20.0524 28.7988 20.3212 28.7426C20.6019 28.6805 20.8781 28.5998 21.1481 28.5013L34.8893 23.6464C34.9989 23.6237 35.103 23.5796 35.1955 23.5165C35.288 23.4535 35.3671 23.3727 35.4283 23.279C35.4895 23.1852 35.5315 23.0803 35.5519 22.9702C35.5724 22.8601 35.5708 22.7471 35.5474 22.6376C35.2888 21.1936 33.0209 21.5653 32.0102 21.7682C29.1913 22.2944 26.3676 22.868 23.5513 23.416C23.5758 23.6739 23.5461 23.9341 23.4643 24.1799C23.3825 24.4257 23.2502 24.6518 23.076 24.8435C22.9018 25.0353 22.6895 25.1886 22.4527 25.2937C22.2158 25.3987 21.9597 25.4531 21.7006 25.4535H15.7557ZM21.6145 3.35336C22.7973 1.11779 24.0391 0 26.3987 0C27.7194 0.000497852 28.9858 0.525264 29.9198 1.45899C30.8537 2.39272 31.3788 3.65903 31.3795 4.97967C31.3795 9.90822 26.5025 13.1357 21.5747 18.0285C21.5329 18.0697 21.4766 18.0928 21.418 18.0928C21.3593 18.0928 21.303 18.0697 21.2612 18.0285C16.3334 13.1357 11.4564 9.90973 11.4564 4.97967C11.4574 3.65916 11.9825 2.39304 12.9164 1.45948C13.8503 0.525912 15.1166 0.00124932 16.4372 0.00075165C18.7968 0.00075165 20.0386 1.11854 21.2214 3.35411C21.2404 3.38971 21.2687 3.41947 21.3034 3.44022C21.338 3.46098 21.3776 3.47194 21.418 3.47194C21.4583 3.47194 21.4979 3.46098 21.5325 3.44022C21.5672 3.41947 21.5955 3.38971 21.6145 3.35411V3.35336ZM0.375852 17.1122C0.298006 17.1121 0.223228 17.1425 0.167623 17.197C0.112017 17.2515 0.0800312 17.3256 0.0785532 17.4035L0 26.4348C8.24111e-05 26.5127 0.0306613 26.5874 0.0851818 26.643C0.139702 26.6986 0.213825 26.7306 0.291662 26.7321L4.04267 26.7626C4.0671 26.7626 4.34335 26.7284 4.34335 26.4773L4.4219 17.4463C4.42198 17.3688 4.39211 17.2942 4.33854 17.2382C4.28496 17.1822 4.21182 17.149 4.13438 17.1456L0.375852 17.1122Z" fill="black"/>
</svg>
