<svg preserveAspectRatio="none" overflow="visible" style="display: block;" width="33.762" height="36.0002" viewBox="0 0 33.762 36.0002" fill="none" xmlns="http://www.w3.org/2000/svg">
<path id="&#239;&#143;&#173;" fill-rule="evenodd" clip-rule="evenodd" d="M31.1194 22.0783C33.3694 16.8751 33.9319 11.461 33.721 7.94536L33.6506 6.5391L32.3147 5.9766L17.6896 0.351565L16.9162 0L16.0724 0.351565L1.44733 5.9766L0.111384 6.5391L0.0410708 7.94536C-0.169868 11.461 0.392635 16.8751 2.64265 22.0783C4.96297 27.422 9.04112 32.6252 16.0021 35.6486L16.9162 36.0002L17.7599 35.6486C24.7209 32.6252 28.799 27.422 31.1194 22.0783ZM16.3537 1.47657L1.86921 7.03129L1.23639 7.31254L1.16608 8.01567C0.955139 11.3907 1.51764 16.5938 3.69734 21.6564C5.87704 26.7189 9.81456 31.7111 16.3537 34.594V1.47657Z" fill="black"/>
</svg>
