<svg preserveAspectRatio="none" overflow="visible" style="display: block;" width="28.7442" height="28.7442" viewBox="0 0 28.7442 28.7442" fill="none" xmlns="http://www.w3.org/2000/svg">
<path id="&#239;&#150;&#152;" d="M18.2458 26.3863L18.5827 27.6214L18.695 28.1266C17.2914 28.5196 15.8318 28.7442 14.3721 28.7442C6.40007 28.7442 0 22.3441 0 14.3721C0 6.45622 6.40007 0 14.3721 0C22.288 0 28.7442 6.45622 28.7442 14.3721C28.7442 16.0563 28.4635 17.6283 27.9582 19.0879C27.3968 18.8072 26.8354 18.6388 26.2178 18.5265C26.667 17.2353 26.9477 15.8318 26.9477 14.3721C26.9477 7.46675 21.2774 1.79651 14.3721 1.79651C7.41061 1.79651 1.79651 7.46675 1.79651 14.3721C1.79651 21.3336 7.41061 26.9477 14.3721 26.9477C15.7195 26.9477 17.0107 26.7793 18.2458 26.3863ZM14.5967 17.123C13.9791 16.7862 13.1931 16.6177 12.4633 16.5055L12.6317 14.9896C13.53 15.1019 14.4844 15.3265 15.2704 15.7195C15.6633 15.944 16.0563 16.1686 16.337 16.5055C16.6739 16.7862 16.8984 17.2353 16.8984 17.7406C16.8984 18.302 16.6739 18.695 16.337 19.0318C16.0563 19.3125 15.6633 19.5932 15.2704 19.7616C15.6633 19.9862 16.0563 20.2108 16.337 20.5476C16.6739 20.8283 16.8984 21.2774 16.8984 21.7827C16.8984 22.3441 16.6739 22.7371 16.337 23.074C16.0563 23.3547 15.6633 23.6354 15.2704 23.8038C14.4844 24.1968 13.53 24.4775 12.6317 24.5898L12.4633 23.074C13.1931 22.9617 13.9791 22.7371 14.5967 22.4564C14.9335 22.288 15.1019 22.1757 15.2704 22.0073C15.3826 21.895 15.3826 21.8388 15.3826 21.7827C15.3826 21.7827 15.3826 21.7266 15.2704 21.6143C15.1019 21.4459 14.9335 21.3336 14.5967 21.1652C13.9791 20.8845 13.1931 20.6599 12.4633 20.5476V19.0318C13.1931 18.9195 13.9791 18.695 14.5967 18.4142C14.9335 18.2458 15.1019 18.1335 15.2704 17.9651C15.3826 17.8528 15.3826 17.7967 15.3826 17.7406C15.3826 17.7406 15.3826 17.6844 15.2704 17.5721C15.1019 17.4037 14.9335 17.2914 14.5967 17.123ZM9.88082 13.0247C9.15098 13.0247 8.53343 12.4633 8.53343 11.6773C8.53343 10.9475 9.15098 10.3299 9.88082 10.3299C10.6106 10.3299 11.2282 10.9475 11.2282 11.6773C11.2282 12.4633 10.6106 13.0247 9.88082 13.0247ZM21.2774 13.3616C20.0423 11.7335 17.6283 11.7335 16.3932 13.3616L14.9896 12.2949C16.8984 9.71239 20.7722 9.71239 22.681 12.2949L21.2774 13.3616ZM24.7582 20.323L24.8143 20.4915L24.9266 20.4353C26.5547 19.9862 28.1828 20.9967 28.6319 22.6248C29.0249 24.2529 28.1266 25.9371 26.4986 26.3863L21.4459 27.8459L20.5476 28.0705L20.323 27.1722L18.9195 21.895C18.5265 20.2669 19.4248 18.5265 21.0529 18.0774C22.681 17.6283 24.3091 18.695 24.7582 20.323ZM21.5581 19.8178C20.9406 19.9862 20.4915 20.716 20.6599 21.4459L21.8388 25.881L25.9933 24.702C26.667 24.5336 27.06 23.8038 26.8915 23.074C26.7231 22.3441 25.9933 22.0073 25.4319 22.1757L24.4213 22.4564L23.5231 22.681L23.2985 21.7827L23.0178 20.7722C22.8494 20.0423 22.1757 19.6494 21.5581 19.8178Z" fill="black"/>
</svg>
