<svg preserveAspectRatio="none" overflow="visible" style="display: block;" width="49.0506" height="39.5025" viewBox="-0.249998 -0.249998 49.0506 39.5025" fill="none" xmlns="http://www.w3.org/2000/svg">
<path id="Vector" d="M47.9679 9.45295C48.1226 9.45295 48.2704 9.39153 48.3796 9.28233C48.4888 9.17313 48.5503 9.02525 48.5503 8.87056V7.79907C48.5707 5.72202 47.7563 3.72685 46.2867 2.25724C44.8193 0.789901 42.8219 -0.0223054 40.7448 0.000466229H7.8099C3.50339 0.0072913 0.0110655 3.4971 0 7.80571V36.1497C0.00455024 37.7262 1.28307 39.0024 2.85967 39.0024H45.679C46.4366 39.0047 47.1623 38.7044 47.6992 38.1698C48.2361 37.6352 48.5387 36.9072 48.5387 36.1496V11.9278C48.5387 11.7731 48.4773 11.6253 48.3681 11.5161C48.2589 11.4069 48.1087 11.3454 47.9563 11.3454H33.9788V7.79191C33.9811 7.44839 34.0084 7.10713 34.0653 6.76817H47.3147C47.3648 7.10714 47.3921 7.45068 47.3966 7.79191V8.87708C47.3989 9.19102 47.6517 9.44613 47.9679 9.45295ZM32.8256 7.79907V16.8489H28.5169L28.5146 15.9002C28.5146 15.5795 28.2552 15.3178 27.9322 15.3178C27.6114 15.3178 27.3498 15.5795 27.3498 15.9002V16.8375H22.0149V16.4121C21.999 15.0926 20.932 14.0256 19.6103 14.012H14.3688C13.0516 14.0325 11.9892 15.0949 11.9687 16.4121V16.8375H6.58833V12.5105H27.3973V13.6457C27.3973 13.9688 27.6566 14.2281 27.9796 14.2281C28.3004 14.2281 28.562 13.9688 28.562 13.6457V7.05943C28.5598 6.79781 28.578 6.53618 28.6144 6.27914C29.0284 3.31941 31.565 1.12175 34.5542 1.13543H36.679C34.3153 2.52543 32.857 5.05751 32.8411 7.7986L32.8256 7.79907ZM33.9904 29.4816H39.7279H39.7257C40.0487 29.4816 40.3081 29.22 40.3081 28.8992C40.3081 28.5761 40.0487 28.3168 39.7257 28.3168H33.9836V23.3846H47.3787V28.3418L41.9983 28.3395C41.6753 28.3395 41.4159 28.6011 41.4159 28.9219C41.4159 29.2427 41.6753 29.5043 41.9983 29.5043H47.3968V33.9997H34.0018L33.9904 29.4816ZM47.3855 22.2424H33.9904V17.9723H47.3855V22.2424ZM32.8256 22.2424H22.0152V17.9723H32.8419L32.8256 22.2424ZM1.14225 17.9723H11.9643V22.2402L1.14225 22.2424V17.9723ZM12.5875 1.13532H30.676C29.0699 2.14997 27.9438 3.77199 27.5593 5.63297H6.76375C7.44625 2.9758 9.84385 1.12396 12.5875 1.13532ZM6.58821 7.05943V6.77506L27.4088 6.77278V7.05715V11.3455H6.58821V7.05943ZM13.104 22.8184V16.4121C13.1245 15.7228 13.6796 15.17 14.3689 15.154H19.6105C20.2975 15.1722 20.8503 15.725 20.8686 16.4121V23.7281C20.889 24.4425 20.3249 25.0385 19.6105 25.0613H14.3689C13.6546 25.0385 13.0904 24.4425 13.1108 23.7281L13.104 22.8184ZM6.58821 29.4816H27.3971V33.9838H6.58821V29.4816ZM27.3971 28.3168H6.58821V23.3846H11.964V23.7281C11.9549 24.3743 12.2029 24.9999 12.6533 25.464C13.1038 25.9281 13.7225 26.1942 14.3686 26.2033H19.6102C20.9524 26.176 22.0239 25.0704 22.0035 23.7281V23.3846H27.3838L27.3971 28.3168ZM7.80949 1.13532H8.71267C6.96322 2.23639 5.79161 4.05637 5.5095 6.10384C5.46855 6.41551 5.45036 6.72717 5.45263 7.04114V16.837H1.14385L1.14157 7.80524C1.14157 4.12207 4.12871 1.13532 7.80949 1.13532ZM1.14167 36.1494V23.3845H5.45045L5.45272 34.5548C5.45272 34.7072 5.51415 34.8574 5.62335 34.9666C5.73255 35.0758 5.88042 35.1372 6.03512 35.1372H27.9681C28.1205 35.1372 28.2706 35.0758 28.3798 34.9666C28.489 34.8574 28.5505 34.7072 28.5505 34.5548V23.3845H32.8592V37.8558H2.85897C1.92167 37.8399 1.16438 37.0867 1.14167 36.1494ZM45.6767 37.8625H33.9834V35.1189H47.3785V36.1449V36.1426C47.3626 37.0799 46.6141 37.8375 45.6791 37.8625L45.6767 37.8625ZM47.3966 12.5103V16.8601H34.0015V12.5103H47.3966ZM34.3562 5.6328C35.3094 2.93241 37.8642 1.1306 40.7282 1.13514C43.5855 1.10557 46.1381 2.921 47.046 5.6328H34.3562ZM16.4249 22.5222V17.6811C16.384 17.5082 16.4272 17.3284 16.5364 17.1897C16.6479 17.0509 16.8139 16.969 16.9914 16.969C17.1688 16.969 17.3372 17.0509 17.4464 17.1897C17.5578 17.3284 17.5988 17.5082 17.5601 17.6811V22.5336C17.5988 22.7065 17.5578 22.8862 17.4464 23.025C17.3372 23.1637 17.1688 23.2456 16.9914 23.2456C16.8139 23.2456 16.6479 23.1637 16.5364 23.025C16.4272 22.8862 16.384 22.7065 16.4249 22.5336V22.5222Z" fill="black" stroke="black" stroke-width="0.499996" stroke-linejoin="round" stroke-linecap="round"/>
</svg>
